<svg width="30" height="30" viewBox="0 0 30 30" fill="none" xmlns="http://www.w3.org/2000/svg">
<g clip-path="url(#clip0_2013_486)">
<path d="M25.8072 11.5857C20.1887 8.26372 14.242 10.7039 11.4942 13.9848C8.66439 17.3683 7.51606 23.6841 11.5967 28.4414C11.4737 28.4414 11.3712 28.4619 11.2686 28.4619C9.62816 28.4619 7.9877 28.4619 6.34723 28.4619C3.84552 28.4619 2 26.6164 2 24.1147C2 17.5323 2 10.95 2 4.36762C2 1.8249 3.84552 -0.00012207 6.36774 -0.00012207C11.3917 -0.00012207 16.4156 -0.00012207 21.4395 -0.00012207C23.9617 -0.00012207 25.7867 1.8454 25.7867 4.36762C25.7867 6.64376 25.7867 8.94041 25.7867 11.2166C25.7867 11.3396 25.7867 11.4421 25.7867 11.5857H25.8072ZM13.9139 6.93084C15.944 6.93084 17.9945 6.93084 20.0246 6.93084C20.7013 6.93084 21.2139 6.4182 21.2139 5.78252C21.2139 5.14684 20.7013 4.63419 20.0451 4.63419C15.9645 4.63419 11.9043 4.63419 7.82365 4.63419C7.59809 4.63419 7.35202 4.71621 7.14696 4.83925C6.69583 5.10582 6.53178 5.63898 6.69583 6.13111C6.83937 6.60275 7.311 6.93084 7.84416 6.93084C9.87423 6.93084 11.9043 6.93084 13.9139 6.93084ZM10.838 11.5446C11.8428 11.5446 12.8271 11.5446 13.8319 11.5446C14.5496 11.5446 15.0827 11.032 15.0827 10.3758C15.0827 9.71963 14.5496 9.22749 13.8113 9.22749C11.8428 9.22749 9.85372 9.22749 7.88517 9.22749C7.16746 9.22749 6.63431 9.74014 6.63431 10.3963C6.63431 11.0525 7.16746 11.5446 7.90567 11.5446C8.88995 11.5446 9.87423 11.5446 10.8585 11.5446H10.838ZM8.54135 16.1585C8.80793 16.1585 9.0745 16.1585 9.34108 16.1585C9.97676 16.138 10.4894 15.6048 10.4689 14.9896C10.4689 14.3745 9.95625 13.8823 9.34108 13.8618C8.80793 13.8618 8.29528 13.8618 7.76213 13.8618C7.12645 13.8618 6.61381 14.4155 6.63431 15.0306C6.63431 15.6458 7.14696 16.138 7.76213 16.1585C8.02871 16.1585 8.29528 16.1585 8.56186 16.1585H8.54135Z" fill="url(#paint0_linear_2013_486)"/>
<path d="M28.8831 21.1619C28.8831 26.0422 24.905 29.9999 20.0246 29.9999C15.1647 29.9999 11.1866 25.9807 11.2071 21.1208C11.2276 16.2405 15.1852 12.3033 20.0451 12.3033C24.9255 12.3033 28.8831 16.2815 28.8831 21.1413V21.1619ZM21.1934 19.993C21.1934 19.3163 21.1934 18.7012 21.1934 18.086C21.1934 17.3888 20.7013 16.8761 20.0451 16.8761C19.3889 16.8761 18.8968 17.3888 18.8968 18.086C18.8968 19.0908 18.8968 20.075 18.8968 21.0798C18.8968 21.818 19.3684 22.2897 20.0861 22.2897C21.0704 22.2897 22.0547 22.2897 23.039 22.2897C23.285 22.2897 23.5311 22.1871 23.7362 22.0641C24.1463 21.7975 24.2898 21.2849 24.1668 20.8338C24.0232 20.3621 23.6131 20.0135 23.0595 20.0135C22.4648 20.0135 21.8701 20.0135 21.2139 20.0135L21.1934 19.993Z" fill="white"/>
</g>
<defs>
<linearGradient id="paint0_linear_2013_486" x1="5.0999" y1="11.4144" x2="26.5101" y2="17.6877" gradientUnits="userSpaceOnUse">
<stop stop-color="#DFA0BE"/>
<stop offset="1" stop-color="#7028E4"/>
</linearGradient>
<clipPath id="clip0_2013_486">
<rect width="26.8831" height="30" fill="white" transform="translate(2 -0.00012207)"/>
</clipPath>
</defs>
</svg>
