<svg width="30" height="30" viewBox="0 0 30 30" fill="none" xmlns="http://www.w3.org/2000/svg">
<g clip-path="url(#clip0_2013_464)">
<path d="M0 14.9998C0.0757813 14.46 0.132813 13.917 0.228906 13.3811C0.810938 10.1405 2.35781 7.43813 4.82031 5.26313C6.90859 3.41859 9.34297 2.29125 12.1016 1.90688C15.4602 1.43891 18.6047 2.07484 21.5047 3.84984C21.5945 3.90453 21.6766 4.06078 21.6727 4.16625C21.6305 5.14125 21.5711 6.11625 21.5086 7.09047C21.5031 7.17797 21.4617 7.28188 21.4016 7.34438C21.0656 7.6975 20.7188 8.04047 20.357 8.40531C20.2609 8.33656 20.1758 8.27563 20.0906 8.21469C18.4875 7.06938 16.7539 6.23422 14.768 6.02406C12.432 5.77641 10.2734 6.31781 8.35625 7.65375C5.33906 9.75609 3.87969 12.692 3.99844 16.3631C4.14922 21.0116 7.72656 25.0663 12.2961 25.8475C17.3797 26.717 22.1828 23.8827 23.7531 19.0084C24.8516 15.5991 24.2109 12.4991 21.8375 9.785C21.7867 9.72641 21.7359 9.66781 21.6547 9.57406C22.0031 9.2311 22.3453 8.88891 22.6961 8.55609C22.7453 8.51 22.8359 8.4936 22.9094 8.48891C23.8742 8.42953 24.8391 8.37953 25.8039 8.31625C25.9844 8.30453 26.0836 8.35922 26.1766 8.51391C27.725 11.0928 28.45 13.8819 28.1875 16.8803C27.718 22.2459 25.0141 26.1366 20.2477 28.5967C18.6883 29.4014 17.0047 29.8178 15.2531 29.9483C15.168 29.9545 15.0844 29.9819 15 29.9991H13.2422C13.1578 29.9819 13.0742 29.9592 12.9891 29.9475C12.4484 29.8733 11.9023 29.8303 11.368 29.7248C8.59531 29.1748 6.19844 27.9006 4.19297 25.9116C2.08281 23.8186 0.747656 21.3077 0.228906 18.3748C0.134375 17.8389 0.075 17.2967 0 16.7577C0 16.1717 0 15.5858 0 14.9998Z" fill="url(#paint0_linear_2013_464)"/>
<path d="M30 3.39832C29.0258 4.36941 28.0555 5.34519 27.0711 6.30613C26.9602 6.41472 26.7758 6.49128 26.6204 6.50222C25.618 6.5741 24.6141 6.6241 23.611 6.68035C23.525 6.68503 23.4383 6.68035 23.3079 6.68035C23.3383 6.07722 23.3657 5.48738 23.3977 4.89832C23.4258 4.38191 23.4493 3.86472 23.4985 3.35066C23.5118 3.2116 23.5774 3.04832 23.6735 2.94988C24.643 1.96003 25.6235 0.981909 26.6016 -0.00012207C26.6211 -0.00012207 26.6407 -0.00012207 26.6602 -0.00012207C26.6985 0.0537842 26.7297 0.11394 26.775 0.160034C27.7954 1.18269 28.8172 2.20457 29.8399 3.22488C29.886 3.27097 29.9461 3.30144 30 3.33972V3.39832Z" fill="#F8F8FA"/>
<path d="M19.0665 9.6304C18.1946 10.5031 17.361 11.3382 16.5251 12.1757C14.1344 10.7257 11.6227 11.7335 10.4915 13.3945C9.29224 15.1546 9.52037 17.5296 11.0508 19.0241C12.5977 20.5343 14.9844 20.6937 16.7376 19.4093C18.3383 18.2366 19.2211 15.7882 17.8282 13.4898C18.6993 12.6179 19.5672 11.7499 20.4477 10.8687C21.3555 11.8538 22.0235 13.0046 22.3219 14.3499C23.204 18.3249 20.7251 22.5421 16.754 23.839C11.7665 25.4671 6.56099 22.2265 5.81568 17.0281C5.18443 12.6273 8.2438 8.47962 12.6251 7.80696C14.6079 7.50306 16.4165 8.01243 18.111 9.01868C18.436 9.21165 18.7477 9.42571 19.0665 9.63118V9.6304Z" fill="white"/>
<path d="M15.2648 13.521C14.6664 14.114 14.0929 14.6812 13.532 15.2367C13.9429 15.6468 14.3429 16.0445 14.7546 16.4546C15.3046 15.8945 15.8742 15.3148 16.4562 14.7218C17.0492 15.7492 16.7218 17.1742 15.7695 17.9382C14.7453 18.7593 13.2726 18.6999 12.3164 17.7992C11.364 16.9023 11.2085 15.4538 11.9484 14.3859C12.6867 13.321 14.0937 12.9359 15.2648 13.521Z" fill="#F8F8FA"/>
</g>
<defs>
<linearGradient id="paint0_linear_2013_464" x1="3.67711" y1="13.0841" x2="28.2403" y2="21.6884" gradientUnits="userSpaceOnUse">
<stop stop-color="#DFA0BE"/>
<stop offset="1" stop-color="#7028E4"/>
</linearGradient>
<clipPath id="clip0_2013_464">
<rect width="30" height="30" fill="white"/>
</clipPath>
</defs>
</svg>
