<svg width="30" height="30" viewBox="0 0 30 30" fill="none" xmlns="http://www.w3.org/2000/svg">
<g clip-path="url(#clip0_2013_225)">
<path d="M17.8466 1.24988C20.9259 1.24988 24.0057 1.24988 27.0849 1.24988C27.549 1.39543 28.0093 1.57214 28.2853 1.99216C28.4814 2.29026 28.5979 2.64153 28.7499 2.96863V15.5907C28.7403 15.6057 28.7263 15.6192 28.7215 15.6358C28.3895 16.7901 27.7165 17.296 26.5102 17.296C23.7892 17.296 21.0687 17.2976 18.3477 17.2928C18.1173 17.2928 17.8794 17.2772 17.657 17.2208C16.7182 16.9829 16.1434 16.1998 16.1424 15.1691C16.1397 12.6543 16.1413 10.139 16.1413 7.62429C16.1413 6.20149 16.1381 4.77815 16.1424 3.35535C16.1451 2.42185 16.6263 1.69675 17.4422 1.38254C17.5743 1.33152 17.7118 1.29392 17.8466 1.24988Z" fill="#b5b4b7"/>
<path d="M1.25 27.0848C1.25 22.8594 1.25 18.6345 1.25 14.409C1.25859 14.3935 1.27095 14.3789 1.27578 14.3623C1.62222 13.2 2.2834 12.7037 3.49028 12.7037C6.229 12.7037 8.96772 12.7021 11.7064 12.7042C13.01 12.7053 13.8543 13.5523 13.8576 14.8575C13.8603 15.9226 13.8581 16.9877 13.8581 18.0528C13.8581 20.9081 13.8581 23.7628 13.8581 26.6181C13.8581 27.4919 13.4945 28.1537 12.7039 28.5527C12.5309 28.6397 12.337 28.6854 12.1528 28.7504H2.96875C2.33496 28.5995 1.81021 28.2906 1.49707 27.6977C1.39502 27.5038 1.3311 27.29 1.25 27.0853V27.0848Z" fill="#b5b4b7"/>
<path d="M12.1533 1.24988C12.4868 1.41208 12.8553 1.52756 13.1464 1.7467C13.6475 2.12375 13.8554 2.67913 13.857 3.3011C13.8618 4.99246 13.8693 6.68381 13.8548 8.37517C13.8446 9.55413 12.9928 10.4114 11.8138 10.4167C8.97681 10.4296 6.14033 10.4264 3.30332 10.4178C2.29355 10.4146 1.54912 9.81086 1.29937 8.83923C1.28862 8.7968 1.26714 8.75706 1.25049 8.7157C1.25049 6.7821 1.25049 4.84851 1.25049 2.91492C1.28325 2.82468 1.3187 2.73499 1.34878 2.64421C1.53086 2.09905 1.87676 1.69568 2.39722 1.45076C2.56426 1.37234 2.74204 1.31594 2.91499 1.24988C5.99424 1.24988 9.07402 1.24988 12.1533 1.24988Z" fill="#b5b4b7"/>
<path d="M17.8467 28.7499C17.655 28.6801 17.4535 28.6291 17.2731 28.5378C16.5447 28.1688 16.157 27.5602 16.1484 26.7519C16.1306 25.0245 16.1247 23.2972 16.1494 21.5699C16.1661 20.4113 17.0394 19.5863 18.2141 19.5809C20.2723 19.5718 22.331 19.5783 24.3892 19.5783C25.1229 19.5783 25.8571 19.5766 26.5908 19.5783C27.7091 19.5809 28.424 20.1336 28.7119 21.2132C28.7183 21.2379 28.7371 21.2599 28.75 21.283V27.0301C28.6098 27.3427 28.5051 27.6784 28.3209 27.962C28.0244 28.4175 27.5442 28.6216 27.0313 28.7489H17.8467V28.7499Z" fill="#b5b4b7"/>
</g>
<defs>
<clipPath id="clip0_2013_225">
<rect width="27.5" height="27.5" fill="#b5b4b7" transform="translate(1.25 1.24988)"/>
</clipPath>
</defs>
</svg>
