<svg width="30" height="30" viewBox="0 0 30 30" fill="none" xmlns="http://www.w3.org/2000/svg">
<g clip-path="url(#clip0_2013_173)">
<path d="M30 21.9327C29.8086 22.5772 29.3469 22.9796 28.8094 23.3452C27.3977 24.3069 26.0203 25.3187 24.6024 26.2702C22.7781 27.4944 20.7539 28.2272 18.5969 28.6147C16.1578 29.0522 13.7602 28.8124 11.3719 28.2374C9.43829 27.7718 7.49376 27.353 5.55391 26.9124C5.46876 26.8929 5.3836 26.8694 5.27344 26.8413V26.5554C5.27344 23.4687 5.27579 20.3827 5.26797 17.296C5.26797 17.0796 5.3336 16.9671 5.52657 16.8741C7.41797 15.964 9.37188 15.7405 11.3836 16.3851C14.1219 17.2624 16.85 18.1702 19.582 19.0671C20.4641 19.3569 20.9547 19.9522 20.975 20.7437C21.0055 21.9546 19.8852 22.8257 18.7047 22.4671C17.2031 22.0108 15.7148 21.5108 14.2219 21.0296C13.7211 20.8679 13.2219 20.7007 12.7203 20.5421C12.1625 20.3655 11.7055 20.5749 11.5367 21.0757C11.3719 21.5647 11.6274 22.0226 12.1781 22.2054C14.0102 22.8116 15.8336 23.4476 17.6797 24.0085C19.5313 24.571 21.2906 24.3085 22.8953 23.1968C24.2914 22.2296 25.7016 21.2804 27.0602 20.2624C28.3133 19.3233 29.7484 20.0874 29.9648 21.2429C29.968 21.2593 29.9875 21.2726 30 21.2874V21.9319V21.9327Z" fill="#b5b4b7"/>
<path d="M30 9.62643C29.8648 10.2131 29.7789 10.8171 29.5852 11.3835C28.5734 14.3452 25.5672 16.3124 22.4875 16.0592C19.2141 15.7905 16.5859 13.4256 16.0469 10.2639C15.3773 6.33424 17.9938 2.69752 21.9344 2.0819C25.8063 1.47643 29.507 4.30455 29.9453 8.20065C29.9547 8.2858 29.9812 8.3694 30 8.45455V9.62643ZM22.0805 12.51C22.0805 12.5139 22.0891 12.5335 22.0867 12.5522C22.0273 13.0647 22.4195 13.5444 22.9602 13.5514C23.4672 13.5585 23.7914 13.1983 23.8531 12.5952C23.8609 12.5171 23.9477 12.4233 24.0227 12.3803C24.3086 12.2163 24.6312 12.1061 24.8922 11.9108C26.1016 11.0061 25.9539 9.29283 24.6125 8.60768C24.3727 8.48502 24.107 8.40143 23.8445 8.33502C23.3344 8.20612 22.8164 8.11158 22.307 7.98268C22.1891 7.95299 22.0922 7.84049 21.9859 7.76627C22.0797 7.66393 22.1555 7.52174 22.2719 7.46627C22.7953 7.21471 23.3172 7.20377 23.832 7.52018C24.2648 7.78658 24.7844 7.67174 25.0469 7.27565C25.318 6.86549 25.2109 6.33424 24.7719 6.04987C24.5453 5.90299 24.2922 5.79362 24.0414 5.69205C23.9086 5.63815 23.8477 5.58737 23.8414 5.42955C23.8203 4.89283 23.45 4.52721 22.9594 4.5319C22.4695 4.53658 22.107 4.9069 22.0953 5.44596C22.0914 5.61862 22.0125 5.6608 21.8758 5.72799C21.5375 5.89518 21.1773 6.05143 20.8984 6.29596C19.8523 7.21158 20.0359 8.77487 21.2555 9.44127C21.5086 9.57955 21.793 9.6733 22.0734 9.74596C22.5922 9.87955 23.1203 9.97408 23.6391 10.1061C23.7539 10.135 23.8453 10.2546 23.9477 10.3319C23.8578 10.428 23.7859 10.56 23.6758 10.6131C23.1422 10.8702 22.6141 10.8827 22.0891 10.5577C21.6609 10.2928 21.1352 10.421 20.8797 10.8225C20.6227 11.2272 20.7266 11.7546 21.1516 12.028C21.4352 12.21 21.7508 12.3421 22.082 12.5116L22.0805 12.51Z" fill="#b5b4b7"/>
<path d="M0 18.4756C0.233594 17.9678 0.634375 17.8014 1.18047 17.8233C1.94766 17.8538 2.71797 17.8311 3.51562 17.8311V18.1725C3.51562 21.2202 3.51562 24.267 3.51562 27.3147C3.51562 28.0553 3.18828 28.3788 2.44141 28.3795C2.02187 28.3795 1.6 28.3569 1.18203 28.385C0.636719 28.4225 0.235156 28.2405 0 27.735L0 18.4756Z" fill="#b5b4b7"/>
</g>
<defs>
<clipPath id="clip0_2013_173">
<rect width="30" height="26.8406" fill="#b5b4b7" transform="translate(0 1.99988)"/>
</clipPath>
</defs>
</svg>
