<svg width="30" height="30" viewBox="0 0 30 30" fill="none" xmlns="http://www.w3.org/2000/svg">
<g clip-path="url(#clip0_2013_140)">
<path d="M6.59769 13.6987C7.55263 12.7893 8.51083 11.9392 9.39751 11.0208C11.1441 9.21087 12.5988 7.19125 13.5725 4.85387C13.6245 4.72871 13.6334 4.55722 13.5952 4.42719C13.3067 3.45273 13.748 2.44008 14.655 2.03372C15.5636 1.62573 16.6161 1.95245 17.1387 2.83913C18.04 4.36948 18.9194 5.91122 19.8085 7.44889C19.8686 7.5521 19.9288 7.65532 20.0011 7.77966C20.6683 7.32454 21.373 7.18556 22.128 7.42288C22.7164 7.60818 23.1536 7.98366 23.4527 8.5233C23.9623 9.44249 23.8615 10.9761 22.3092 11.7701C22.3621 11.866 22.4141 11.9611 22.4685 12.0554C23.356 13.5931 24.2524 15.1259 25.1286 16.67C25.8413 17.9265 25.1367 19.3967 23.7234 19.6113C23.0911 19.7072 22.5303 19.5089 22.0882 19.0513C21.9159 18.8733 21.7363 18.8107 21.5063 18.7839C18.8771 18.4726 16.2959 18.775 13.7529 19.4349C12.7345 19.699 11.7398 20.0599 10.7377 20.3858C10.5841 20.4362 10.489 20.4581 10.3915 20.2891C9.13419 18.098 7.8696 15.9109 6.60744 13.7223C6.59769 13.7052 6.59687 13.6841 6.60012 13.6971L6.59769 13.6987Z" fill="#b5b4b7"/>
<path d="M5.37615 14.0385C6.78135 16.4717 8.16378 18.8668 9.54054 21.2514C9.52103 21.2904 9.51697 21.3164 9.50234 21.3245C8.36128 21.9836 7.23891 22.6801 6.07265 23.2905C4.11643 24.3145 1.66607 23.5692 0.566462 21.6675C-0.54209 19.7511 0.0178748 17.2723 1.88063 16.0824C3.00625 15.3632 4.18714 14.7301 5.37615 14.0385Z" fill="#b5b4b7"/>
<path d="M7.65826 23.8041C8.54819 23.2913 9.40643 22.7964 10.2882 22.2876C10.6922 22.8118 11.0871 23.3238 11.4821 23.8358C12.0201 24.5348 12.5598 25.2329 13.0962 25.9335C13.483 26.4382 13.4473 26.8364 12.98 27.2647C12.6882 27.5321 12.3989 27.8019 12.099 28.0604C11.7048 28.3993 11.2042 28.3765 10.888 27.9734C9.81198 26.6015 8.75219 25.2175 7.65826 23.8041Z" fill="#b5b4b7"/>
<path d="M24.3101 1.86633C24.2459 2.03375 24.2004 2.21173 24.1135 2.36615C23.6592 3.16912 23.1983 3.96884 22.7318 4.76531C22.4474 5.2505 21.9484 5.40004 21.5168 5.14322C21.0926 4.89047 20.9755 4.39796 21.2454 3.92333C21.7216 3.08622 22.2019 2.25075 22.6936 1.42258C22.909 1.0593 23.2853 0.926822 23.6616 1.03898C24.033 1.15032 24.2728 1.46891 24.3101 1.86633Z" fill="#b5b4b7"/>
<path d="M27.6715 10.9103C28.1486 10.9103 28.6249 10.9046 29.1019 10.9119C29.6253 10.9209 29.9927 11.2687 29.9992 11.7474C30.0057 12.2237 29.6465 12.6056 29.1279 12.6146C28.1543 12.6308 27.1798 12.6317 26.2062 12.6146C25.6861 12.6048 25.3342 12.2237 25.3431 11.7425C25.3528 11.2565 25.7088 10.9258 26.2403 10.9111C26.2607 10.9111 26.281 10.9111 26.3013 10.9111C26.758 10.9111 27.214 10.9111 27.6707 10.9111L27.6715 10.9103Z" fill="#b5b4b7"/>
<path d="M25.7617 8.00976C25.2813 8.0057 24.9668 7.76757 24.8539 7.39453C24.7449 7.03612 24.8734 6.65333 25.2147 6.44283C25.7405 6.11856 26.281 5.81704 26.8158 5.50658C27.0962 5.34403 27.3733 5.17417 27.6602 5.02301C28.1015 4.78976 28.5924 4.91654 28.8313 5.31234C29.0824 5.72845 28.967 6.23559 28.5249 6.50054C27.7244 6.97923 26.9133 7.44004 26.1014 7.89842C25.9738 7.97075 25.8177 7.99188 25.7609 8.00976H25.7617Z" fill="#b5b4b7"/>
</g>
<defs>
<clipPath id="clip0_2013_140">
<rect width="30" height="27.2961" fill="#b5b4b7" transform="translate(0 1)"/>
</clipPath>
</defs>
</svg>
